<svg width="1280" height="326" viewBox="0 0 1280 326" fill="none" xmlns="http://www.w3.org/2000/svg">
<path fill-rule="evenodd" clip-rule="evenodd" d="M0 277.13L627 283.797L627.333 281.797L786 283.13V285.13L831.333 285.797C832.111 282.575 832.067 271.863 825.667 254.797C825 253.019 823.733 248.463 824 244.463C824.292 240.083 823.817 239.029 823.022 237.266C822.909 237.016 822.791 236.753 822.667 236.463C821.867 234.597 821.444 228.797 821.333 226.13C821.222 222.797 820.733 214.663 819.667 208.797C818.333 201.463 818 198.797 818 193.13C818 191.13 817 189.797 816.667 189.463C816.4 189.197 816.111 187.797 816 187.13C815.222 187.463 812.867 188.13 809.667 188.13C805.667 188.13 801.333 180.13 803.667 170.797C803.115 170.728 802.562 170.687 802.037 170.649C800.024 170.502 798.402 170.383 798.667 168.797C798.032 156.733 799.816 143.083 801.859 127.449C804.106 110.251 806.667 90.6541 806.667 68.1302C806.667 66.1558 812.442 62.5933 818.481 58.8679C821.618 56.9327 824.826 54.9535 827.333 53.1302C829 51.9181 829 45.6635 825 43.7968C824.417 43.5247 823.267 43.6455 822.278 43.7494C821.57 43.8237 820.945 43.8895 820.667 43.7968C815.333 36.3301 814 28.4635 814.333 26.1301L815.814 24.4635C815.305 21.9654 815 19.5505 815 17.4635C815 -2.2032 849 -8.20319 849.667 16.1302H852.333C854 18.7968 857.133 26.3301 856.333 35.1301C855.333 36.6857 852.6 39.7301 849.667 39.4635C846.733 39.1968 848.444 41.7968 849.667 43.1302C851.667 45.312 865.867 51.5968 874.667 54.7968C878.333 56.1301 880.2 57.5968 881 64.7968C886.667 77.7968 899.667 115.463 895 141.797C895.482 142.417 896.05 142.923 896.556 143.374C898.498 145.106 899.531 146.026 891.333 149.463C891.333 161.797 890 166.13 880 175.463C879.778 176.352 879.333 179.908 880 180.797C881 182.13 882 184.463 879.333 190.463C878.333 208.797 878.83 227.826 879.333 239.463C879.59 245.397 880.163 248.849 880.698 252.068C881.754 258.431 882.659 263.881 880.667 285.797H936V281.13H942.333L944 278.797H1012.33V281.13H1031.67L1032.67 286.797H1106.33C1105.78 285.13 1105 280.73 1106.33 276.463C1107.67 272.197 1105.56 268.019 1104.33 266.463C1100.93 262.13 1095.33 246.463 1095.33 240.463V200.463C1095.33 195.797 1095.47 186.33 1097.33 179.13H1092C1092 177.56 1091.93 175.749 1091.86 173.823C1091.55 165.115 1091.15 154.041 1096.33 152.13L1095.67 148.463C1094.78 148.352 1092.6 148.397 1091 149.463L1088 116.797C1085.56 115.13 1080.73 110.463 1081 105.13C1081.31 98.991 1085.29 96.5266 1086.7 95.6544C1086.82 95.5794 1086.92 95.5162 1087 95.4635C1087.8 94.9301 1090 94.7968 1091 94.7968C1091.89 87.6857 1096.73 70.9968 1109 61.1301V58.1301C1108.44 58.1301 1107.2 58.2635 1106.67 58.7968C1106 59.4635 1104 57.4635 1113.67 51.1301V49.1301L1109 49.7968C1108.22 50.019 1107.33 48.7968 1109.67 48.1301C1109.89 47.7968 1110.2 46.8635 1109.67 45.7968C1109.44 45.3435 1109.1 44.9288 1108.68 44.4216C1107.87 43.4369 1106.77 42.1037 1105.67 39.4635C1105.56 39.1301 1105.47 38.3301 1106 37.7968C1106.53 37.2635 1106.22 36.019 1106 35.4635C1105.44 35.6857 1104.8 36.3968 1104 37.4635C1103.45 38.1945 1102.4 37.3496 1101.47 36.6024C1101.05 36.2592 1100.65 35.9367 1100.33 35.7968C1100.32 35.7103 1100.3 35.6197 1100.28 35.5241C1100.03 34.27 1099.61 32.1715 1102.33 27.4635C1100.33 26.1301 1102 16.7968 1105 17.7968C1104.33 -1.86985 1144 -3.53652 1145 17.7968L1146 18.4635V29.7968C1146 32.1301 1143.67 41.7968 1140.33 42.1301L1136.67 43.1301V47.4635C1139.58 49.1491 1143.35 51.8208 1146.73 54.2159C1150.7 57.0308 1154.14 59.4635 1155 59.4635H1157C1159.67 59.4635 1160 59.4635 1161.33 63.4635C1162.15 65.9022 1163.07 68.505 1164.04 71.2357C1168.76 84.5543 1174.55 100.916 1174 116.13L1173.99 116.45C1173.77 122.498 1173.74 123.486 1158.67 124.797C1158.67 128.162 1157.97 130.687 1157.29 133.176C1156.56 135.864 1155.83 138.51 1156 142.13C1156.17 145.717 1157.31 149.142 1158.38 152.349C1159.39 155.376 1160.33 158.207 1160.33 160.797V185.463C1160.33 186.661 1159.85 188.602 1159.37 190.584C1158.86 192.653 1158.33 194.768 1158.33 196.13C1158.33 197.424 1158.8 199.111 1159.29 200.847C1159.8 202.689 1160.33 204.586 1160.33 206.13V217.13C1160.33 219.495 1159.46 221.03 1158.57 222.606C1157.69 224.141 1156.8 225.714 1156.67 228.13C1156.5 231.217 1157.25 233.032 1159.45 238.324C1159.72 238.98 1160.02 239.691 1160.33 240.463C1162.67 246.13 1163 251.908 1162.67 251.13C1163.44 260.019 1164.53 279.73 1162.67 287.463H1280V328.463H0V277.13ZM1097 178.463C1096.44 173.797 1095.67 162.863 1097 156.463C1099 158.463 1099.67 160.13 1099.67 161.797C1099.67 162.601 1099.43 163.525 1099.09 164.841L1099.09 164.842C1098.45 167.342 1097.44 171.258 1097 178.463ZM810.333 181.13C809.681 178.522 811.003 176.838 811.943 175.639C812.04 175.516 812.132 175.398 812.218 175.285C812.258 175.232 812.297 175.181 812.333 175.13C812.333 175.13 812.333 177.13 813.333 180.13L814.667 184.13C814.314 184.13 813.983 184.161 813.67 184.19C812.207 184.327 811.157 184.426 810.333 181.13ZM1132.33 279.13V271.13H1134C1134.8 274.863 1135 278.019 1135 279.13H1132.33Z" fill="#E21B5A"/>
</svg>
